<svg xmlns="http://www.w3.org/2000/svg" width="134" height="32" viewBox="0 0 134 32" shape-rendering="crispEdges" role="img"><title>JavaScript</title><path d="M4 0H130V4H134V28H130V32H4V28H0V4H4Z" fill="#14121f"/><path d="M7 3H127V7H131V25H127V29H7V25H3V7H7Z" fill="none" stroke="#ffd166" stroke-width="2"/><g fill="#ffd166"><rect x="23.2" y="10.4" width="1.6" height="1.6"/><rect x="24.8" y="10.4" width="1.6" height="1.6"/><rect x="26.4" y="10.4" width="1.6" height="1.6"/><rect x="24.8" y="12" width="1.6" height="1.6"/><rect x="24.8" y="13.6" width="1.6" height="1.6"/><rect x="24.8" y="15.2" width="1.6" height="1.6"/><rect x="24.8" y="16.8" width="1.6" height="1.6"/><rect x="20" y="18.4" width="1.6" height="1.6"/><rect x="24.8" y="18.4" width="1.6" height="1.6"/><rect x="21.6" y="20" width="1.6" height="1.6"/><rect x="23.2" y="20" width="1.6" height="1.6"/><rect x="31.2" y="10.4" width="1.6" height="1.6"/><rect x="32.8" y="10.4" width="1.6" height="1.6"/><rect x="34.4" y="10.4" width="1.6" height="1.6"/><rect x="29.6" y="12" width="1.6" height="1.6"/><rect x="36" y="12" width="1.6" height="1.6"/><rect x="29.6" y="13.6" width="1.6" height="1.6"/><rect x="36" y="13.6" width="1.6" height="1.6"/><rect x="29.6" y="15.2" width="1.6" height="1.6"/><rect x="31.2" y="15.2" width="1.6" height="1.6"/><rect x="32.8" y="15.2" width="1.6" height="1.6"/><rect x="34.4" y="15.2" width="1.6" height="1.6"/><rect x="36" y="15.2" width="1.6" height="1.6"/><rect x="29.6" y="16.8" width="1.6" height="1.6"/><rect x="36" y="16.8" width="1.6" height="1.6"/><rect x="29.6" y="18.4" width="1.6" height="1.6"/><rect x="36" y="18.4" width="1.6" height="1.6"/><rect x="29.6" y="20" width="1.6" height="1.6"/><rect x="36" y="20" width="1.6" height="1.6"/><rect x="39.2" y="10.4" width="1.6" height="1.6"/><rect x="45.6" y="10.4" width="1.6" height="1.6"/><rect x="39.2" y="12" width="1.6" height="1.6"/><rect x="45.6" y="12" width="1.6" height="1.6"/><rect x="39.2" y="13.6" width="1.6" height="1.6"/><rect x="45.6" y="13.6" width="1.6" height="1.6"/><rect x="39.2" y="15.2" width="1.6" height="1.6"/><rect x="45.6" y="15.2" width="1.6" height="1.6"/><rect x="39.2" y="16.8" width="1.6" height="1.6"/><rect x="45.6" y="16.8" width="1.6" height="1.6"/><rect x="40.8" y="18.4" width="1.6" height="1.6"/><rect x="44" y="18.4" width="1.6" height="1.6"/><rect x="42.4" y="20" width="1.6" height="1.6"/><rect x="50.4" y="10.4" width="1.6" height="1.6"/><rect x="52" y="10.4" width="1.6" height="1.6"/><rect x="53.6" y="10.4" width="1.6" height="1.6"/><rect x="48.8" y="12" width="1.6" height="1.6"/><rect x="55.2" y="12" width="1.6" height="1.6"/><rect x="48.8" y="13.6" width="1.6" height="1.6"/><rect x="55.2" y="13.6" width="1.6" height="1.6"/><rect x="48.8" y="15.2" width="1.6" height="1.6"/><rect x="50.4" y="15.2" width="1.6" height="1.6"/><rect x="52" y="15.2" width="1.6" height="1.6"/><rect x="53.6" y="15.2" width="1.6" height="1.6"/><rect x="55.2" y="15.2" width="1.6" height="1.6"/><rect x="48.8" y="16.8" width="1.6" height="1.6"/><rect x="55.2" y="16.8" width="1.6" height="1.6"/><rect x="48.8" y="18.4" width="1.6" height="1.6"/><rect x="55.2" y="18.4" width="1.6" height="1.6"/><rect x="48.8" y="20" width="1.6" height="1.6"/><rect x="55.2" y="20" width="1.6" height="1.6"/><rect x="60" y="10.4" width="1.6" height="1.6"/><rect x="61.6" y="10.4" width="1.6" height="1.6"/><rect x="63.2" y="10.4" width="1.6" height="1.6"/><rect x="64.8" y="10.4" width="1.6" height="1.6"/><rect x="58.4" y="12" width="1.6" height="1.6"/><rect x="58.4" y="13.6" width="1.6" height="1.6"/><rect x="60" y="15.2" width="1.6" height="1.6"/><rect x="61.6" y="15.2" width="1.6" height="1.6"/><rect x="63.2" y="15.2" width="1.6" height="1.6"/><rect x="64.8" y="16.8" width="1.6" height="1.6"/><rect x="64.8" y="18.4" width="1.6" height="1.6"/><rect x="58.4" y="20" width="1.6" height="1.6"/><rect x="60" y="20" width="1.6" height="1.6"/><rect x="61.6" y="20" width="1.6" height="1.6"/><rect x="63.2" y="20" width="1.6" height="1.6"/><rect x="69.6" y="10.4" width="1.6" height="1.6"/><rect x="71.2" y="10.4" width="1.6" height="1.6"/><rect x="72.8" y="10.4" width="1.6" height="1.6"/><rect x="74.4" y="10.4" width="1.6" height="1.6"/><rect x="68" y="12" width="1.6" height="1.6"/><rect x="68" y="13.6" width="1.6" height="1.6"/><rect x="68" y="15.2" width="1.6" height="1.6"/><rect x="68" y="16.8" width="1.6" height="1.6"/><rect x="68" y="18.4" width="1.6" height="1.6"/><rect x="69.6" y="20" width="1.6" height="1.6"/><rect x="71.2" y="20" width="1.6" height="1.6"/><rect x="72.8" y="20" width="1.6" height="1.6"/><rect x="74.4" y="20" width="1.6" height="1.6"/><rect x="77.6" y="10.4" width="1.6" height="1.6"/><rect x="79.2" y="10.4" width="1.6" height="1.6"/><rect x="80.8" y="10.4" width="1.6" height="1.6"/><rect x="82.4" y="10.4" width="1.6" height="1.6"/><rect x="77.6" y="12" width="1.6" height="1.6"/><rect x="84" y="12" width="1.6" height="1.6"/><rect x="77.6" y="13.6" width="1.6" height="1.6"/><rect x="84" y="13.6" width="1.6" height="1.6"/><rect x="77.6" y="15.2" width="1.6" height="1.6"/><rect x="79.2" y="15.2" width="1.6" height="1.6"/><rect x="80.8" y="15.2" width="1.6" height="1.6"/><rect x="82.4" y="15.2" width="1.6" height="1.6"/><rect x="77.6" y="16.8" width="1.6" height="1.6"/><rect x="80.8" y="16.8" width="1.6" height="1.6"/><rect x="77.6" y="18.4" width="1.6" height="1.6"/><rect x="82.4" y="18.4" width="1.6" height="1.6"/><rect x="77.6" y="20" width="1.6" height="1.6"/><rect x="84" y="20" width="1.6" height="1.6"/><rect x="87.2" y="10.4" width="1.6" height="1.6"/><rect x="88.8" y="10.4" width="1.6" height="1.6"/><rect x="90.4" y="10.4" width="1.6" height="1.6"/><rect x="92" y="10.4" width="1.6" height="1.6"/><rect x="93.6" y="10.4" width="1.6" height="1.6"/><rect x="90.4" y="12" width="1.6" height="1.6"/><rect x="90.4" y="13.6" width="1.6" height="1.6"/><rect x="90.4" y="15.2" width="1.6" height="1.6"/><rect x="90.4" y="16.8" width="1.6" height="1.6"/><rect x="90.4" y="18.4" width="1.6" height="1.6"/><rect x="87.2" y="20" width="1.6" height="1.6"/><rect x="88.8" y="20" width="1.6" height="1.6"/><rect x="90.4" y="20" width="1.6" height="1.6"/><rect x="92" y="20" width="1.6" height="1.6"/><rect x="93.6" y="20" width="1.6" height="1.6"/><rect x="96.8" y="10.4" width="1.6" height="1.6"/><rect x="98.4" y="10.4" width="1.6" height="1.6"/><rect x="100" y="10.4" width="1.6" height="1.6"/><rect x="101.6" y="10.4" width="1.6" height="1.6"/><rect x="96.8" y="12" width="1.6" height="1.6"/><rect x="103.2" y="12" width="1.6" height="1.6"/><rect x="96.8" y="13.6" width="1.6" height="1.6"/><rect x="103.2" y="13.6" width="1.6" height="1.6"/><rect x="96.8" y="15.2" width="1.6" height="1.6"/><rect x="98.4" y="15.2" width="1.6" height="1.6"/><rect x="100" y="15.2" width="1.6" height="1.6"/><rect x="101.6" y="15.2" width="1.6" height="1.6"/><rect x="96.8" y="16.8" width="1.6" height="1.6"/><rect x="96.8" y="18.4" width="1.6" height="1.6"/><rect x="96.8" y="20" width="1.6" height="1.6"/><rect x="106.4" y="10.4" width="1.6" height="1.6"/><rect x="108" y="10.4" width="1.6" height="1.6"/><rect x="109.6" y="10.4" width="1.6" height="1.6"/><rect x="111.2" y="10.4" width="1.6" height="1.6"/><rect x="112.8" y="10.4" width="1.6" height="1.6"/><rect x="109.6" y="12" width="1.6" height="1.6"/><rect x="109.6" y="13.6" width="1.6" height="1.6"/><rect x="109.6" y="15.2" width="1.6" height="1.6"/><rect x="109.6" y="16.8" width="1.6" height="1.6"/><rect x="109.6" y="18.4" width="1.6" height="1.6"/><rect x="109.6" y="20" width="1.6" height="1.6"/></g></svg>