<svg xmlns="http://www.w3.org/2000/svg" width="146" height="40" viewBox="0 0 146 40" shape-rendering="crispEdges" role="img"><title>PORTFOLIO</title><path d="M4 0H142V4H146V36H142V40H4V36H0V4H4Z" fill="#14121f"/><path d="M7 3H139V7H143V33H139V37H7V33H3V7H7Z" fill="none" stroke="#ffd166" stroke-width="2"/><g fill="#ffd166"><rect x="20" y="13" width="2" height="2"/><rect x="22" y="13" width="2" height="2"/><rect x="24" y="13" width="2" height="2"/><rect x="26" y="13" width="2" height="2"/><rect x="20" y="15" width="2" height="2"/><rect x="28" y="15" width="2" height="2"/><rect x="20" y="17" width="2" height="2"/><rect x="28" y="17" width="2" height="2"/><rect x="20" y="19" width="2" height="2"/><rect x="22" y="19" width="2" height="2"/><rect x="24" y="19" width="2" height="2"/><rect x="26" y="19" width="2" height="2"/><rect x="20" y="21" width="2" height="2"/><rect x="20" y="23" width="2" height="2"/><rect x="20" y="25" width="2" height="2"/><rect x="34" y="13" width="2" height="2"/><rect x="36" y="13" width="2" height="2"/><rect x="38" y="13" width="2" height="2"/><rect x="32" y="15" width="2" height="2"/><rect x="40" y="15" width="2" height="2"/><rect x="32" y="17" width="2" height="2"/><rect x="40" y="17" width="2" height="2"/><rect x="32" y="19" width="2" height="2"/><rect x="40" y="19" width="2" height="2"/><rect x="32" y="21" width="2" height="2"/><rect x="40" y="21" width="2" height="2"/><rect x="32" y="23" width="2" height="2"/><rect x="40" y="23" width="2" height="2"/><rect x="34" y="25" width="2" height="2"/><rect x="36" y="25" width="2" height="2"/><rect x="38" y="25" width="2" height="2"/><rect x="44" y="13" width="2" height="2"/><rect x="46" y="13" width="2" height="2"/><rect x="48" y="13" width="2" height="2"/><rect x="50" y="13" width="2" height="2"/><rect x="44" y="15" width="2" height="2"/><rect x="52" y="15" width="2" height="2"/><rect x="44" y="17" width="2" height="2"/><rect x="52" y="17" width="2" height="2"/><rect x="44" y="19" width="2" height="2"/><rect x="46" y="19" width="2" height="2"/><rect x="48" y="19" width="2" height="2"/><rect x="50" y="19" width="2" height="2"/><rect x="44" y="21" width="2" height="2"/><rect x="48" y="21" width="2" height="2"/><rect x="44" y="23" width="2" height="2"/><rect x="50" y="23" width="2" height="2"/><rect x="44" y="25" width="2" height="2"/><rect x="52" y="25" width="2" height="2"/><rect x="56" y="13" width="2" height="2"/><rect x="58" y="13" width="2" height="2"/><rect x="60" y="13" width="2" height="2"/><rect x="62" y="13" width="2" height="2"/><rect x="64" y="13" width="2" height="2"/><rect x="60" y="15" width="2" height="2"/><rect x="60" y="17" width="2" height="2"/><rect x="60" y="19" width="2" height="2"/><rect x="60" y="21" width="2" height="2"/><rect x="60" y="23" width="2" height="2"/><rect x="60" y="25" width="2" height="2"/><rect x="68" y="13" width="2" height="2"/><rect x="70" y="13" width="2" height="2"/><rect x="72" y="13" width="2" height="2"/><rect x="74" y="13" width="2" height="2"/><rect x="76" y="13" width="2" height="2"/><rect x="68" y="15" width="2" height="2"/><rect x="68" y="17" width="2" height="2"/><rect x="68" y="19" width="2" height="2"/><rect x="70" y="19" width="2" height="2"/><rect x="72" y="19" width="2" height="2"/><rect x="74" y="19" width="2" height="2"/><rect x="68" y="21" width="2" height="2"/><rect x="68" y="23" width="2" height="2"/><rect x="68" y="25" width="2" height="2"/><rect x="82" y="13" width="2" height="2"/><rect x="84" y="13" width="2" height="2"/><rect x="86" y="13" width="2" height="2"/><rect x="80" y="15" width="2" height="2"/><rect x="88" y="15" width="2" height="2"/><rect x="80" y="17" width="2" height="2"/><rect x="88" y="17" width="2" height="2"/><rect x="80" y="19" width="2" height="2"/><rect x="88" y="19" width="2" height="2"/><rect x="80" y="21" width="2" height="2"/><rect x="88" y="21" width="2" height="2"/><rect x="80" y="23" width="2" height="2"/><rect x="88" y="23" width="2" height="2"/><rect x="82" y="25" width="2" height="2"/><rect x="84" y="25" width="2" height="2"/><rect x="86" y="25" width="2" height="2"/><rect x="92" y="13" width="2" height="2"/><rect x="92" y="15" width="2" height="2"/><rect x="92" y="17" width="2" height="2"/><rect x="92" y="19" width="2" height="2"/><rect x="92" y="21" width="2" height="2"/><rect x="92" y="23" width="2" height="2"/><rect x="92" y="25" width="2" height="2"/><rect x="94" y="25" width="2" height="2"/><rect x="96" y="25" width="2" height="2"/><rect x="98" y="25" width="2" height="2"/><rect x="100" y="25" width="2" height="2"/><rect x="104" y="13" width="2" height="2"/><rect x="106" y="13" width="2" height="2"/><rect x="108" y="13" width="2" height="2"/><rect x="110" y="13" width="2" height="2"/><rect x="112" y="13" width="2" height="2"/><rect x="108" y="15" width="2" height="2"/><rect x="108" y="17" width="2" height="2"/><rect x="108" y="19" width="2" height="2"/><rect x="108" y="21" width="2" height="2"/><rect x="108" y="23" width="2" height="2"/><rect x="104" y="25" width="2" height="2"/><rect x="106" y="25" width="2" height="2"/><rect x="108" y="25" width="2" height="2"/><rect x="110" y="25" width="2" height="2"/><rect x="112" y="25" width="2" height="2"/><rect x="118" y="13" width="2" height="2"/><rect x="120" y="13" width="2" height="2"/><rect x="122" y="13" width="2" height="2"/><rect x="116" y="15" width="2" height="2"/><rect x="124" y="15" width="2" height="2"/><rect x="116" y="17" width="2" height="2"/><rect x="124" y="17" width="2" height="2"/><rect x="116" y="19" width="2" height="2"/><rect x="124" y="19" width="2" height="2"/><rect x="116" y="21" width="2" height="2"/><rect x="124" y="21" width="2" height="2"/><rect x="116" y="23" width="2" height="2"/><rect x="124" y="23" width="2" height="2"/><rect x="118" y="25" width="2" height="2"/><rect x="120" y="25" width="2" height="2"/><rect x="122" y="25" width="2" height="2"/></g></svg>